{
  "accessors": [
    {
      "bufferView": 2,
      "componentType": 5126,
      "count": 281,
      "max": [
        0.004000000189989805,
        0.004000000189989805,
        0.08134900033473969
      ],
      "min": [
        -0.005324999801814556,
        -0.004000000189989805,
        -0.04735200107097626
      ],
      "type": "VEC3"
    },
    {
      "bufferView": 2,
      "byteOffset": 3372,
      "componentType": 5126,
      "count": 281,
      "max": [
        1.0,
        1.0,
        0.9996525049209595
      ],
      "min": [
        -1.0,
        -1.0,
        -1.0
      ],
      "type": "VEC3"
    },
    {
      "bufferView": 3,
      "componentType": 5126,
      "count": 281,
      "max": [
        1.0,
        1.0,
        0.9922025799751282,
        1.0
      ],
      "min": [
        -1.0,
        -1.0,
        -0.9923895597457886,
        1.0
      ],
      "type": "VEC4"
    },
    {
      "bufferView": 1,
      "componentType": 5126,
      "count": 281,
      "max": [
        0.8031049966812134,
        0.9949420094490051
      ],
      "min": [
        0.005057999864220619,
        0.005057999864220619
      ],
      "type": "VEC2"
    },
    {
      "bufferView": 0,
      "componentType": 5125,
      "count": 918,
      "type": "SCALAR"
    },
    {
      "bufferView": 2,
      "byteOffset": 6744,
      "componentType": 5126,
      "count": 473,
      "max": [
        0.07500000298023224,
        0.011540999636054039,
        0.10695300251245499
      ],
      "min": [
        -0.08305700123310089,
        -0.001512999995611608,
        -0.10681299865245819
      ],
      "type": "VEC3"
    },
    {
      "bufferView": 2,
      "byteOffset": 12420,
      "componentType": 5126,
      "count": 473,
      "max": [
        1.0,
        1.0,
        1.0
      ],
      "min": [
        -1.0,
        -1.0,
        -1.0
      ],
      "type": "VEC3"
    },
    {
      "bufferView": 3,
      "byteOffset": 4496,
      "componentType": 5126,
      "count": 473,
      "max": [
        1.0,
        1.0,
        0.9999961853027344,
        1.0
      ],
      "min": [
        -1.0,
        -1.0,
        -1.0,
        1.0
      ],
      "type": "VEC4"
    },
    {
      "bufferView": 1,
      "byteOffset": 2248,
      "componentType": 5126,
      "count": 473,
      "max": [
        0.8308749794960022,
        0.9969679713249207
      ],
      "min": [
        0.004861999768763781,
        0.0030320000369101763
      ],
      "type": "VEC2"
    },
    {
      "bufferView": 0,
      "byteOffset": 3672,
      "componentType": 5125,
      "count": 1296,
      "type": "SCALAR"
    }
  ],
  "asset": {
    "extras": {
      "author": "NoXiou5 (https://sketchfab.com/NoXiou5)",
      "license": "SKETCHFAB Standard (https://sketchfab.com/licenses)",
      "source": "https://sketchfab.com/3d-models/notebook-and-pen-dc4c2866a51d4cb78011311dae2fdfa2",
      "title": "Notebook and Pen"
    },
    "generator": "Sketchfab-16.74.0",
    "version": "2.0"
  },
  "bufferViews": [
    {
      "buffer": 0,
      "byteLength": 8856,
      "name": "floatBufferViews",
      "target": 34963
    },
    {
      "buffer": 0,
      "byteLength": 6032,
      "byteOffset": 8856,
      "byteStride": 8,
      "name": "floatBufferViews",
      "target": 34962
    },
    {
      "buffer": 0,
      "byteLength": 18096,
      "byteOffset": 14888,
      "byteStride": 12,
      "name": "floatBufferViews",
      "target": 34962
    },
    {
      "buffer": 0,
      "byteLength": 12064,
      "byteOffset": 32984,
      "byteStride": 16,
      "name": "floatBufferViews",
      "target": 34962
    }
  ],
  "buffers": [
    {
      "byteLength": 45048,
      "uri": "scene.bin"
    }
  ],
  "images": [
    {
      "uri": "textures/notebook_baseColor.jpeg"
    },
    {
      "uri": "textures/notebook_metallicRoughness.png"
    },
    {
      "uri": "textures/notebook_normal.png"
    },
    {
      "uri": "textures/penna_baseColor.png"
    },
    {
      "uri": "textures/penna_metallicRoughness.png"
    },
    {
      "uri": "textures/penna_normal.png"
    }
  ],
  "materials": [
    {
      "doubleSided": true,
      "name": "notebook",
      "normalTexture": {
        "index": 2
      },
      "occlusionTexture": {
        "index": 1
      },
      "pbrMetallicRoughness": {
        "baseColorTexture": {
          "index": 0
        },
        "metallicRoughnessTexture": {
          "index": 1
        }
      }
    },
    {
      "alphaMode": "BLEND",
      "doubleSided": true,
      "name": "penna",
      "normalTexture": {
        "index": 5
      },
      "occlusionTexture": {
        "index": 4
      },
      "pbrMetallicRoughness": {
        "baseColorTexture": {
          "index": 3
        },
        "metallicRoughnessTexture": {
          "index": 4
        }
      }
    }
  ],
  "meshes": [
    {
      "name": "defaultMaterial",
      "primitives": [
        {
          "attributes": {
            "NORMAL": 1,
            "POSITION": 0,
            "TANGENT": 2,
            "TEXCOORD_0": 3
          },
          "indices": 4,
          "material": 1,
          "mode": 4
        }
      ]
    },
    {
      "name": "defaultMaterial",
      "primitives": [
        {
          "attributes": {
            "NORMAL": 6,
            "POSITION": 5,
            "TANGENT": 7,
            "TEXCOORD_0": 8
          },
          "indices": 9,
          "material": 0,
          "mode": 4
        }
      ]
    }
  ],
  "nodes": [
    {
      "children": [
        1
      ],
      "matrix": [
        1.0,
        0.0,
        0.0,
        0.0,
        0.0,
        2.220446049250313e-16,
        -1.0,
        0.0,
        0.0,
        1.0,
        2.220446049250313e-16,
        0.0,
        0.0,
        0.0,
        0.0,
        1.0
      ],
      "name": "Sketchfab_model"
    },
    {
      "children": [
        2,
        4
      ],
      "matrix": [
        1.0,
        0.0,
        0.0,
        0.0,
        0.0,
        -4.371139006309477e-08,
        0.999999999999999,
        0.0,
        0.0,
        -0.999999999999999,
        -4.371139006309477e-08,
        0.0,
        0.0,
        0.0,
        0.0,
        1.0
      ],
      "name": "Collada visual scene group"
    },
    {
      "children": [
        3
      ],
      "matrix": [
        1.0,
        0.0,
        0.0,
        0.0,
        0.0,
        1.0,
        0.0,
        0.0,
        0.0,
        0.0,
        1.0,
        0.0,
        -0.114936,
        0.005316,
        -0.020857,
        1.0
      ],
      "name": "penna"
    },
    {
      "mesh": 0,
      "name": "defaultMaterial"
    },
    {
      "children": [
        5
      ],
      "name": "notebook"
    },
    {
      "mesh": 1,
      "name": "defaultMaterial"
    }
  ],
  "samplers": [
    {
      "magFilter": 9729,
      "minFilter": 9987,
      "wrapS": 10497,
      "wrapT": 10497
    }
  ],
  "scene": 0,
  "scenes": [
    {
      "name": "Sketchfab_Scene",
      "nodes": [
        0
      ]
    }
  ],
  "textures": [
    {
      "sampler": 0,
      "source": 0
    },
    {
      "sampler": 0,
      "source": 1
    },
    {
      "sampler": 0,
      "source": 2
    },
    {
      "sampler": 0,
      "source": 3
    },
    {
      "sampler": 0,
      "source": 4
    },
    {
      "sampler": 0,
      "source": 5
    }
  ]
}
